HIERARCHY
ROOT Hips
{
  OFFSET 40.9192 92.6879 18.85
  CHANNELS 6 Xposition Yposition Zposition Zrotation Xrotation Yrotation
  JOINT LeftUpLeg
  {
    OFFSET 8.64259 1.95398 -2.38835
    CHANNELS 3 Zrotation Xrotation Yrotation
    JOINT LeftLeg
    {
      OFFSET 43.7702 0 0
      CHANNELS 3 Zrotation Xrotation Yrotation
      JOINT LeftFoot
      {
        OFFSET 40.6238 0 0
        CHANNELS 3 Zrotation Xrotation Yrotation
        JOINT LeftToeBase
        {
          OFFSET 12.7242 0 0
          CHANNELS 3 Zrotation Xrotation Yrotation
          End Site
          {
            OFFSET 0 0 0
          }
        }
      }
    }
  }
  JOINT RightUpLeg
  {
    OFFSET -8.2249 1.95398 -2.59336
    CHANNELS 3 Zrotation Xrotation Yrotation
    JOINT RightLeg
    {
      OFFSET 43.5653 0 0
      CHANNELS 3 Zrotation Xrotation Yrotation
      JOINT RightFoot
      {
        OFFSET 40.6238 0 0
        CHANNELS 3 Zrotation Xrotation Yrotation
        JOINT RightToeBase
        {
          OFFSET 12.7242 0 0
          CHANNELS 3 Zrotation Xrotation Yrotation
          End Site
          {
            OFFSET 0 0 0
          }
        }
      }
    }
  }
  JOINT Spine
  {
    OFFSET 0.165834 0.87714 6.61349
    CHANNELS 3 Zrotation Xrotation Yrotation
    JOINT Spine1
    {
      OFFSET 7.38963 1.71661e-005 0
      CHANNELS 3 Zrotation Xrotation Yrotation
      JOINT Spine2
      {
        OFFSET 11.9445 1.14441e-005 0
        CHANNELS 3 Zrotation Xrotation Yrotation
        JOINT Spine3
        {
          OFFSET 14.7254 4.19617e-005 0
          CHANNELS 3 Zrotation Xrotation Yrotation
          JOINT Spine4
          {
            OFFSET 10.9679 0 0
            CHANNELS 3 Zrotation Xrotation Yrotation
            JOINT RightShoulder
            {
              OFFSET 2.46616 -1.6653 3.69651
              CHANNELS 3 Zrotation Xrotation Yrotation
              JOINT RightArm
              {
                OFFSET 13.0012 0 0
                CHANNELS 3 Zrotation Xrotation Yrotation
                JOINT RightForeArm
                {
                  OFFSET 28.7848 1.52588e-005 0
                  CHANNELS 3 Zrotation Xrotation Yrotation
                  JOINT RightHand
                  {
                    OFFSET 26.5688 1.52588e-005 0
                    CHANNELS 3 Zrotation Xrotation Yrotation
                    End Site
                    {
                      OFFSET 0 0 0
                    }
                  }
                }
              }
            }
            JOINT LeftShoulder
            {
              OFFSET 2.38034 -1.29275 -3.7523
              CHANNELS 3 Zrotation Xrotation Yrotation
              JOINT LeftArm
              {
                OFFSET 16.3182 6.10351e-005 0
                CHANNELS 3 Zrotation Xrotation Yrotation
                JOINT LeftForeArm
                {
                  OFFSET 27.0901 0 0
                  CHANNELS 3 Zrotation Xrotation Yrotation
                  JOINT LeftHand
                  {
                    OFFSET 24.5451 1.52588e-005 0
                    CHANNELS 3 Zrotation Xrotation Yrotation
                    End Site
                    {
                      OFFSET 0 0 0
                    }
                  }
                }
              }
            }
            JOINT Neck
            {
              OFFSET 5.0226 -0.0266342 0
              CHANNELS 3 Zrotation Xrotation Yrotation
              JOINT Head
              {
                OFFSET 6.69363 2.86102e-005 0
                CHANNELS 3 Zrotation Xrotation Yrotation
                End Site
                {
                  OFFSET 0 0 0
                }
              }
            }
          }
        }
      }
    }
  }
}
MOTION
Frames:	17
Frame Time:	0.0416667
53.4161 89.9539 11.0091 21.7102 -82.2403 26.2517 -160.006 49.977 88.0337 -40.047 10.6534 -9.12022 57.6161 -1.92486 1.30379 41.0041 10.9253 16.6373 172.847 8.56939 75.9748 -35.8158 -16.3 -8.87246 52.1185 0.584675 0.75826 57.7404 -0.650284 -10.8952 1.23693 8.60233 -90.0076 9.67284 2.46249 -0.207154 -1.99582 2.45099 -0.315398 -24.5492 2.41083 0.54296 -4.5365 2.41083 0.542957 95.6817 -41.6862 -93.2287 30.2852 -11.8624 -0.46681 -22.2836 -1.72508 -93.9348 -37.9943 -1.4068 0.126141 -92.7198 -46.0117 73.6033 -55.1395 20.9781 42.4843 11.2012 9.34853 -60.0525 23.5755 2.13148 5.26471 5.99113 8.22241 -6.07027 12.758 11.0826 13.1162 
57.7741 91.6329 18.9402 37.7812 -80.5459 44.36 -164.034 48.1668 90.8269 -27.2566 15.2257 -8.91126 51.272 -6.78883 -0.283753 40.4775 10.2396 14.9958 170.517 1.7214 75.9147 -28.3536 -16.5403 -8.64122 40.1987 5.07757 5.1633 43.5844 0.161351 -11.1808 1.47226 8.35888 -90.1604 10.1658 2.86049 -0.558569 -1.50215 2.83313 -0.684023 -24.0625 2.896 0.327677 -4.04988 2.896 0.327683 95.8254 -41.2867 -93.0422 29.8238 -12.0419 3.1707 -20.9702 -0.356865 -95.7799 -38.4397 -1.06473 -1.00401 -90.9786 -44.0495 75.8089 -57.8423 17.8666 46.4067 9.88888 6.60529 -62.1539 23.7684 1.66907 3.18201 4.07268 6.45891 -5.07752 13.0798 8.71877 10.2492 
61.8635 93.0887 26.6545 44.5442 -78.8669 54.1956 -165.967 47.6586 93.4225 -22.0284 15.6344 -8.31081 49.8042 -8.14325 -0.519466 37.9842 7.48498 7.87015 172.275 -3.12926 79.2028 -27.6117 -14.8516 -9.59692 38.2102 5.66879 5.94194 28.3789 0.85663 -13.1859 1.76267 8.04105 -90.3335 10.8092 3.35596 -0.974989 -0.857842 3.30979 -1.1219 -23.4279 3.49365 0.0799012 -3.41519 3.49365 0.0798994 95.6513 -41.256 -93.348 29.4793 -12.2221 7.55472 -20.6786 -0.944698 -95.8594 -39.4987 -1.59045 0.342034 -89.7802 -42.1651 77.2609 -58.4193 14.4704 49.235 10.0706 4.71162 -64.7435 23.0793 1.34267 1.97215 2.21163 5.0557 -4.822 13.2189 6.89514 8.05654 
65.3924 93.5041 33.8215 46.6637 -77.4861 58.1066 -165.25 48.5254 94.2023 -24.9054 10.9498 -8.84459 51.0257 -7.72662 -0.870636 35.4417 5.1723 9.85987 175.052 -3.8006 82.2914 -34.7644 -8.90336 -8.97837 42.1548 3.58986 3.65025 29.0352 0.810088 -12.827 1.98549 7.81245 -90.2829 11.2698 3.81968 -0.941807 -0.396005 3.77455 -1.10923 -22.9763 3.92589 0.251495 -2.96368 3.92588 0.25149 95.6287 -41.3153 -93.3778 29.9697 -12.8743 10.7684 -19.6235 -2.02584 -93.9261 -39.8651 -1.67053 0.48415 -88.8571 -41.9049 78.7125 -56.2994 12.0118 49.223 9.44162 3.09838 -66.385 23.1919 1.2609 1.58184 2.54085 3.82754 -4.97875 12.8329 5.42658 6.32061 
68.904 93.1639 40.839 53.8606 -74.2521 65.8461 -164.781 47.9948 92.3443 -29.7999 8.36782 -8.61159 50.2458 -8.07602 -2.43962 32.7548 2.57163 11.4733 176.58 -2.12024 84.7523 -46.5312 -5.86309 -7.51322 41.5994 3.38149 3.4566 29.5452 0.706589 -11.6916 1.87694 7.6978 -90.0272 11.4901 3.7216 -0.433586 -0.17567 3.69891 -0.597184 -22.7526 3.6796 0.706514 -2.73997 3.67962 0.706514 95.6177 -43.2 -93.1124 30.0285 -13.1998 13.012 -18.7777 -3.5906 -90.2688 -35.7684 -1.6352 0.842376 -88.3785 -41.4301 79.3834 -52.5358 10.044 46.7223 7.7389 1.76536 -66.7879 24.0203 1.45441 2.2042 3.45337 2.65805 -5.85712 12.3444 4.09093 4.21578 
72.0596 92.8301 47.827 63.021 -71.2935 74.0347 -164.528 44.1143 90.063 -33.6371 14.3408 -8.51274 52.1163 -6.17904 0.0483911 28.7045 -0.611999 5.73075 177.399 0.368247 86.6337 -60.0956 -4.87546 -6.03243 38.5739 4.08541 4.29055 27.8313 0.64324 -9.45716 1.52961 7.81589 -89.8722 11.2473 3.10373 -0.0513435 -0.419964 3.09845 -0.188031 -22.9833 2.97552 0.884677 -2.97068 2.97553 0.884672 94.6757 -42.3291 -94.8454 31.0327 -13.5766 15.4872 -16.8528 -6.75696 -84.251 -31.811 -1.41098 0.599023 -88.4215 -45.3334 80.1759 -46.0977 9.26124 42.4577 5.75689 0.658686 -66.5346 25.6866 1.65741 2.61955 3.43888 2.35355 -3.53975 12.4075 3.02856 1.37083 
75.1087 92.2484 54.6044 70.3224 -68.6883 79.4308 -164.753 39.2135 87.9893 -38.9077 17.4341 -8.37398 59.9106 0.539801 3.7836 27.9088 -0.989836 2.60339 177.262 4.23844 87.1265 -73.9451 -3.11707 -4.27539 35.7615 4.22395 4.60037 29.1863 0.50686 -7.97867 1.1745 7.98605 -89.5423 10.8948 2.54993 0.669865 -0.773762 2.57696 0.556919 -23.3236 2.23069 1.40556 -3.31094 2.23071 1.40556 93.8985 -42.9532 -96.0499 31.4501 -14.5225 17.5307 -14.9238 -9.87116 -79.1343 -28.1432 -1.65307 2.12402 -88.1252 -48.0241 81.1606 -40.0545 7.61645 37.3482 4.30357 -0.525971 -66.9345 25.3056 1.60616 2.5151 3.44963 2.30618 -2.82797 12.2471 2.57791 -0.632092 
78.137 91.1723 61.215 73.2234 -67.6364 80.7717 -164.053 35.6447 86.7173 -44.6289 18.128 -8.69534 66.1852 6.63122 6.95045 30.3201 0.997895 2.71165 177.324 11.3624 87.7796 -87.9465 1.22818 -2.95426 35.6632 2.86952 3.25367 30.1654 0.507707 -8.3924 1.04556 8.13318 -89.1186 10.5896 2.48771 1.52788 -1.0797 2.55254 1.41686 -23.6201 1.91362 2.2049 -3.60747 1.9136 2.20488 94.0065 -45.09 -95.4809 31.1912 -15.8721 18.5989 -12.7199 -12.4759 -74.2701 -23.3398 -1.44643 2.26244 -89.5182 -49.782 79.4034 -34.2613 5.60342 32.1577 4.25756 -0.934776 -69.0193 27.3199 2.0147 3.56014 4.46923 2.01557 -4.8702 12.4081 2.59963 -0.798383 
80.9902 90.3299 67.2218 73.9497 -66.6611 80.9455 -163.006 32.4757 85.8897 -48.0739 17.6321 -8.83501 68.2145 9.91725 11.1601 36.1951 5.83528 0.287263 177.139 21.3361 89.7746 -100.391 4.77466 -2.18907 35.7837 1.18338 1.58735 31.6095 0.548357 -10.2016 0.84932 8.29877 -88.8502 10.2515 2.21745 2.09344 -1.41914 2.30742 1.99384 -23.9485 1.48601 2.66285 -3.93588 1.48602 2.66285 93.3704 -45.901 -96.372 31.8484 -16.1797 19.5977 -12.5689 -15.1091 -70.0959 -18.3448 -1.16577 2.11761 -91.1331 -51.3235 77.342 -28.9738 3.81086 25.1393 3.76236 -1.23332 -71.0032 29.8928 2.3358 3.95892 6.95523 2.00919 -5.72181 11.8614 2.75592 -1.37867 
84.2366 89.7518 72.8744 75.1911 -62.4927 82.1336 -164.878 28.31 85.672 -49.4556 17.0341 -7.65406 72.2464 13.5934 10.5462 37.8835 7.15969 0.373745 173.442 32.229 92.3349 -108.727 7.0716 -1.90344 34.6219 -0.0135882 0.435639 32.9206 0.517869 -11.4761 0.384973 8.41655 -88.8199 10.0239 1.30413 2.2352 -1.6482 1.40122 2.17566 -24.1694 0.572312 2.52362 -4.15676 0.572321 2.52362 93.3773 -46.5671 -96.2372 32.0355 -17.5272 21.4191 -11.5897 -18.0159 -66.4997 -16.4756 -1.06187 2.01708 -93.1532 -50.0959 74.0569 -26.5174 2.71286 18.0527 7.09946 0.0305632 -73.1875 33.0645 3.12586 5.69398 8.90495 1.83772 -6.07526 10.4454 2.77703 -1.27914 
88.1888 89.769 78.9036 73.105 -59.3459 81.2012 -167.026 24.3539 86.5982 -47.9883 20.0861 -6.85668 72.8548 14.9015 12.8249 40.3452 9.13493 1.07544 169.969 42.5808 96.6825 -112.151 8.43999 -2.01505 37.8239 -1.183 -0.690205 33.3007 0.526035 -12.0393 -0.0316586 8.29799 -88.9597 10.2693 0.412329 2.03053 -1.40318 0.5013 2.01041 -23.9256 -0.216836 2.06058 -3.91297 -0.216839 2.06057 93.0415 -46.6474 -96.7617 32.6062 -18.9288 25.0719 -11.3873 -19.6368 -65.0361 -15.037 -0.747466 0.144305 -92.4314 -47.7227 74.5149 -26.439 1.64916 12.3423 11.0738 0.474493 -78.0374 32.5589 3.27222 6.28716 10.1012 2.16104 -6.70002 8.93377 3.34187 -0.898192 
92.4897 90.8508 84.9876 72.9835 -56.5694 81.6973 -169.191 18.272 87.3828 -43.7569 21.9333 -5.19997 70.5303 13.2485 12.8415 42.614 11.0456 2.26004 167.418 49.9737 99.5595 -110.369 8.99243 -1.8915 42.3776 -1.57998 -1.01745 34.9189 0.45071 -13.4612 -0.437771 8.18524 -89.1322 10.5039 -0.473597 1.76661 -1.16817 -0.395394 1.78572 -23.6963 -0.982583 1.54267 -3.68362 -0.982583 1.54268 93.4425 -47.3803 -95.9852 32.3593 -20.341 29.8543 -13.8126 -21.0697 -66.4919 -12.787 -0.603287 -0.607845 -91.3822 -45.3948 75.5209 -27.2733 1.72174 9.04963 14.3781 -0.639692 -85.0485 33.0685 3.13338 5.69576 9.89819 2.59269 -7.92556 8.15704 4.15759 0.463237 
97.2213 92.773 91.2876 74.2577 -54.0521 84.6678 -170.376 11.5749 90.9581 -38.0686 26.2818 -3.72542 64.601 7.13718 10.9061 44.4359 12.6617 3.36248 165.815 53.395 101.935 -103.36 6.92567 -1.2555 46.5999 -1.18141 -0.686041 34.1208 0.458305 -10.7768 -0.78924 8.18156 -89.5273 10.5175 -1.35491 1.06215 -1.15321 -1.30686 1.12075 -23.6925 -1.61149 0.605786 -3.67983 -1.61149 0.605792 93.8227 -47.3638 -95.382 32.4232 -21.6806 34.6872 -13.6812 -20.9806 -67.9782 -12.0345 -0.445427 -1.88109 -90.5516 -44.1889 76.5239 -27.2342 3.09589 6.77359 16.3037 -3.56897 -91.0481 33.6038 3.35567 6.21731 10.1943 3.08857 -7.97755 6.81368 4.77532 1.5156 
101.863 94.9737 98.1005 75.8388 -53.3656 86.4097 -170.207 2.1425 89.0472 -29.0203 27.1359 -2.53881 53.8362 -3.03786 1.02054 46.5529 15.3126 9.10154 168.122 54.3962 101.407 -93.1684 2.27273 -0.691941 50.011 -0.0911825 0.134591 35.0058 0.420839 -10.8535 -0.940055 8.17912 -89.7289 10.5204 -1.74793 0.695508 -1.14966 -1.71562 0.771772 -23.6938 -1.87613 0.137859 -3.68119 -1.87612 0.13786 93.9727 -47.0271 -95.1999 33.5056 -21.5043 39.5 -13.4681 -20.24 -68.3034 -12.1875 -0.393306 -2.33087 -90.018 -43.0346 77.0908 -27.6217 4.22389 6.60138 18.916 -4.91063 -99.4281 34.4031 3.54782 6.56364 9.90906 3.44721 -8.21385 5.80882 5.27361 2.9374 
106.752 96.8692 105.024 77.9743 -56.1943 89.001 -168.409 -6.34139 95.7927 -17.2521 23.9421 -1.98942 38.9637 -11.9709 -10.4979 41.8196 11.1266 10.2663 172.788 53.2983 101.267 -79.8573 -0.34448 -0.374113 50.3499 1.11 1.08629 36.884 0.337743 -10.4399 -0.665261 8.24323 -89.9238 10.3897 -1.29033 0.26353 -1.28061 -1.27748 0.320067 -23.8214 -1.30985 -0.136522 -3.80873 -1.30986 -0.136532 94.0743 -46.7184 -95.0891 34.3152 -20.5153 43.5094 -13.5713 -19.1572 -68.5664 -11.9062 -0.258968 -3.52645 -89.8953 -42.7287 77.2139 -27.251 5.02019 7.32623 18.909 -8.00083 -105.945 33.844 3.02328 5.12888 9.75025 3.39105 -8.0382 4.63269 5.24407 4.1012 
111.465 98.7335 111.653 76.2775 -50.0709 88.4927 -169.265 -8.40347 97.4471 -14.5989 30.0227 -0.00540426 31.6066 -15.7427 -12.9791 28.3143 -1.49789 9.76057 170.227 52.1667 99.6562 -63.7873 -1.89399 1.91955 49.6373 2.10093 1.91399 37.5134 0.284973 -12.6383 -1.35392 7.997 -90.2023 10.8807 -2.78916 -0.140266 -0.787251 -2.79264 -0.0172787 -23.3442 -2.61797 -0.97261 -3.33156 -2.61797 -0.972619 94.0705 -46.3876 -95.1511 35.1681 -19.8432 46.6117 -12.7222 -18.2514 -68.4903 -11.5572 -0.354565 -2.62729 -89.537 -41.7122 77.5478 -27.9774 5.46822 9.36394 19.2272 -10.5624 -111.517 31.9478 2.22395 3.11561 9.82094 3.5594 -9.4436 2.54051 5.75677 6.26051 
116.321 99.7191 118.852 74.8538 -50.2249 85.8263 -169.959 -10.2644 96.6069 -16.5076 25.5463 0.385921 32.4133 -15.2312 -11.5486 23.5075 -6.67311 12.7948 173.162 50.5496 97.0921 -47.8762 -2.69583 2.05792 50.1959 2.33553 2.09425 32.6989 0.555043 -11.7528 -1.37554 7.76873 -90.1127 11.3399 -2.78959 0.054752 -0.328089 -2.78447 0.177578 -22.8859 -2.67699 -0.78678 -2.87328 -2.67698 -0.786778 94.5092 -45.4188 -94.5999 36.131 -18.6369 48.3082 -13.7332 -18.1868 -68.612 -10.8217 -0.195031 -4.21094 -89.3241 -40.5585 77.6148 -28.9563 7.87057 10.4575 18.0192 -12.1975 -115.146 32.699 1.60102 0.975494 9.62478 3.29817 -10.1655 1.68213 5.66776 7.72509 
